# xmcd
# Track frame offsets:
# 150
# 17876
# 31079
# 45733
# 65585
# 66933
# 78244
# 93422
# 108741
# 127585
# 140982
# 155277
# 174569
# 190410
#
# Disc length: 2722 seconds
# Revision: 0
# Processed by: cddbd v1.5.2PL0 Copyright (c) Steve Scherf et al.
# Submitted via: VisiTrax 2.10.0.248 - For more info visit www.synapsa.com
#
DISCID=be0aa00e
DTITLE=Rogers, Robin - Crazy Cryin' Blues
DYEAR=2006
DGENRE=Blues
TTITLE0=Hesitation Blues
TTITLE1=He May Be Your Man
TTITLE2=Yola My Blues Away
TTITLE3=Cone On In This House
TTITLE4=The Bossman's Son
TTITLE5=Wild About That Thing
TTITLE6=Black-Eyed Blues
TTITLE7=It's A Blessing
TTITLE8=Hip Shakin' Mama
TTITLE9=Me And My Chauffeur Blues
TTITLE10=Conjur Man
TTITLE11=Long John Blues
TTITLE12=Travelin' Blues
TTITLE13=Savannah Poppa
EXTD=
EXTT0=
EXTT1=
EXTT2=
EXTT3=
EXTT4=
EXTT5=
EXTT6=
EXTT7=
EXTT8=
EXTT9=
EXTT10=
EXTT11=
EXTT12=
EXTT13=
PLAYORDER=
